<svg xmlns="http://www.w3.org/2000/svg" width="510" height="450" viewBox="0 0 510 450">
  <g id="logo" transform="translate(0 -30)">
    <g id="Эллипс_1" data-name="Эллипс 1" transform="matrix(0.999, -0.035, 0.035, 0.999, 28.822, 85.05)" fill="#ccc" stroke="#707070" stroke-width="1">
      <ellipse cx="192" cy="181" rx="192" ry="181" stroke="none"/>
      <ellipse cx="192" cy="181" rx="191.5" ry="180.5" fill="none"/>
    </g>
    <g id="Сгруппировать_5" data-name="Сгруппировать 5">
      <path id="Контур_7" data-name="Контур 7" d="M337.412,450A226.256,226.256,0,0,0,384.1,414.1,225,225,0,1,0,65.9,95.9,225,225,0,0,0,225,480H510V450ZM360,240h30v30H360ZM331.066,127.72l21.213,21.214-21.214,21.213-21.213-21.214ZM210,90h30v30H210Zm-91.066,37.721,21.214,21.213-21.214,21.213L97.721,148.934ZM90,270H60V240H90Zm28.934,112.279L97.72,361.066l21.214-21.214,21.214,21.213ZM240,420H210V390h30Zm-15-81.835L154.8,267.4a52.933,52.933,0,0,1-15.439-38.379,51.428,51.428,0,0,1,16.747-37.182A51.984,51.984,0,0,1,225,190.458a51.984,51.984,0,0,1,68.892,1.379,51.435,51.435,0,0,1,16.746,37.182,52.986,52.986,0,0,1-15.464,38.4Zm84.852,22.9,21.213-21.213,21.214,21.214-21.213,21.213Z" fill="#8b3b32"/>
      <path id="Контур_8" data-name="Контур 8" d="M243.02,214.615l-7.414,7.414L225,232.636l-10.606-10.607c-4.37-4.37-7.226-7.226-7.4-7.4a22.067,22.067,0,0,0-30.6-.69,21.7,21.7,0,0,0-7.038,15.7,22.542,22.542,0,0,0,6.684,16.573L225,295.565l48.96-49.356a22.545,22.545,0,0,0,6.684-16.573,21.7,21.7,0,0,0-7.038-15.7,22.067,22.067,0,0,0-30.586.675Z" fill="#8b3b32"/>
    </g>
  </g>
</svg>
